<?xml version="1.0" encoding="UTF-8"?>
<svg version="1.1" xmlns="http://www.w3.org/2000/svg" width="48" height="48">
<path d="M0 0 C4.52011354 3.19603988 6.78355409 6.68451761 8.1875 12.0078125 C9.15386846 17.7858906 8.26666898 22.65262363 5.625 27.875 C1.42461793 32.95967303 -2.65435407 35.81098514 -9.1875 36.75 C-15.72428397 37.21691314 -20.20005301 35.7116219 -25.1875 31.5 C-29.63987744 26.15714707 -31.55677745 21.87343189 -31.375 14.875 C-30.2793649 8.84900696 -28.20909685 4.7883165 -23.375 0.875 C-16.06178445 -4.11939111 -7.79505635 -4.43763508 0 0 Z " fill="#F0F0F0" transform="translate(35.375,7.125)"/>
<path d="M0 0 C0.78503906 0.00386719 1.57007813 0.00773437 2.37890625 0.01171875 C4.4375 0.3125 4.4375 0.3125 6.4375 2.3125 C6.4375 3.3025 6.4375 4.2925 6.4375 5.3125 C5.1175 5.3125 3.7975 5.3125 2.4375 5.3125 C2.4375 4.6525 2.4375 3.9925 2.4375 3.3125 C0.7875 3.3125 -0.8625 3.3125 -2.5625 3.3125 C-2.5625 5.6225 -2.5625 7.9325 -2.5625 10.3125 C-1.9025 9.9825 -1.2425 9.6525 -0.5625 9.3125 C-0.5625 8.3225 -0.5625 7.3325 -0.5625 6.3125 C1.7475 6.3125 4.0575 6.3125 6.4375 6.3125 C6.4375 8.6225 6.4375 10.9325 6.4375 13.3125 C-2.55082117 14.89060219 -2.55082117 14.89060219 -6.1875 12.8125 C-8.05482102 9.41737088 -8.04821008 7.1287935 -7.5625 3.3125 C-5.34886985 0.29138212 -3.66530711 -0.07849916 0 0 Z " fill="#373737" transform="translate(28.5625,16.6875)"/>
<path d="M0 0 C2.97 0 5.94 0 9 0 C8.67 0.99 8.34 1.98 8 3 C6.68 3 5.36 3 4 3 C4 5.31 4 7.62 4 10 C5.65 10.33 7.3 10.66 9 11 C9 11.66 9 12.32 9 13 C6.03 13 3.06 13 0 13 C0 8.71 0 4.42 0 0 Z " fill="#292929" transform="translate(12,17)"/>
<path d="M0 0 C1.65 0 3.3 0 5 0 C5.66 3.3 6.32 6.6 7 10 C6.34 10 5.68 10 5 10 C4.67 9.34 4.34 8.68 4 8 C1.97536745 7.34786708 1.97536745 7.34786708 0 7 C0 4.69 0 2.38 0 0 Z " fill="#EAEAEA" transform="translate(16,20)"/>
</svg>
